<svg width="1080" height="1080" viewBox="0 0 1080 1080" fill="none" xmlns="http://www.w3.org/2000/svg">
<rect width="1080" height="1080" fill="white"/>
<path d="M156 588.037L167.779 570.759C178.04 581.02 193.608 588.229 209.176 588.229C224.744 588.229 236.139 581.197 236.139 570.567C236.139 557.653 218.478 553.481 205.372 550.621C181.637 545.107 160.364 533.711 160.364 510.551C160.364 487.391 180.31 472.943 208.984 472.943C227.972 472.943 243.923 479.784 253.432 489.278L242.803 506.364C235.579 498.964 222.296 493.258 208.615 493.258C194.183 493.258 183.73 499.907 183.73 509.785C183.73 521.564 199.298 526.502 211.844 528.964C224.183 531.618 259.329 540.36 259.329 569.609C259.329 592.784 237.481 608.544 209.19 608.544C189.244 608.544 168.737 600.376 156.015 588.037H156Z" fill="#0C0C1A"/>
<path d="M271.462 557.83C271.462 528.964 293.679 507.116 323.311 507.116C342.682 507.116 359.017 516.61 367.759 531.235L349.331 542.439C344.201 533.52 334.707 527.623 323.311 527.623C306.225 527.623 293.31 540.729 293.31 557.815C293.31 574.902 306.225 588.008 323.311 588.008C334.707 588.008 344.201 582.125 349.331 573.192L367.759 584.396C359.017 599.02 342.682 608.514 323.311 608.514C293.679 608.514 271.462 586.666 271.462 557.801V557.83Z" fill="#0C0C1A"/>
<path d="M439.923 507.883V529.731H436.311C417.323 529.731 406.119 541.318 406.119 559.171V606.273H384.845V509.401H406.119V523.642C413.342 513.765 423.588 507.883 436.311 507.883H439.923Z" fill="#0C0C1A"/>
<path d="M452.837 485.489C452.837 477.705 458.719 472 466.326 472C473.933 472 480.007 477.705 480.007 485.489C480.007 493.273 474.125 498.978 466.326 498.978C458.528 498.978 452.837 493.096 452.837 485.489ZM455.682 509.401H476.956V606.259H455.682V509.401Z" fill="#0C0C1A"/>
<path d="M605.332 557.83C605.332 586.696 584.825 608.544 557.655 608.544C543.414 608.544 531.443 602.47 523.468 592.209V606.259H502.194V475.42H523.468V523.466C531.443 513.205 543.414 507.131 557.655 507.131C584.811 507.131 605.332 528.979 605.332 557.845V557.83ZM583.307 557.83C583.307 540.744 570.584 527.638 553.483 527.638C536.382 527.638 523.468 540.744 523.468 557.83C523.468 574.916 536.382 588.022 553.483 588.022C570.584 588.022 583.307 574.916 583.307 557.83Z" fill="#0C0C1A"/>
<path d="M720.425 566.38H641.981C645.402 580.238 657.358 589.364 673.132 589.364C685.855 589.364 696.675 583.29 702.189 576.066L716.622 588.42C706.745 600.76 690.793 608.558 672.557 608.558C641.79 608.558 618.998 586.533 618.998 557.461C618.998 528.389 641.023 507.131 670.095 507.131C699.167 507.131 721 528.787 721 558.036C721 560.69 720.809 563.742 720.425 566.395V566.38ZM641.804 548.911H698.209C694.98 535.23 683.776 526.311 669.903 526.311C656.031 526.311 645.21 535.422 641.79 548.911H641.804Z" fill="#0C0C1A"/>
<path d="M832.438 548.336C828.649 587.875 800.403 608.558 774.471 608.558C761.763 608.558 750.662 603.738 743.202 595.01C737.055 587.831 730.494 574.725 733.104 552.552L754.687 555.206C753.404 566.793 755.114 575.609 759.655 580.843C763.09 584.853 767.881 586.799 774.264 586.799C790.466 586.799 808.172 572.897 810.693 546.331C812.255 531.161 808.658 517.141 801.096 508.797C796.083 503.416 789.051 500.571 780.766 500.571C767.689 500.571 760.186 506.689 757.753 511.922C755.925 515.578 756.117 518.851 758.313 521.667C759.183 522.861 764.299 528.743 780.559 528.743C784.82 528.743 789.375 528.375 794.388 527.593L800.137 548.675C793.017 549.913 786.633 550.503 780.766 550.503C756.574 550.503 745.532 540.817 741.109 535.053C733.885 525.647 732.809 513.426 738.249 502.354C745.281 487.833 761.586 478.826 780.766 478.826C795.42 478.826 807.98 484.192 817.076 494.349C828.723 507.043 834.325 526.724 832.438 548.336Z" fill="#0C0C1A"/>
<path d="M886.056 507.883C877.829 507.883 870.547 510.861 864.871 516.522V509.283H843.539V606.273H864.871V547.628C864.871 536.704 872.183 529.23 883.063 529.038H883.431C893.663 529.215 901.668 537.382 901.668 547.628V606.273H923V547.82C923 522.817 904.218 507.883 886.056 507.883Z" fill="#0C0C1A"/>
</svg>
