<svg width="767" height="137" viewBox="0 0 767 137" fill="none" xmlns="http://www.w3.org/2000/svg">
<path d="M0 116.037L11.7791 98.759C22.0398 109.02 37.6077 116.229 53.1756 116.229C68.7436 116.229 80.1394 109.197 80.1394 98.5673C80.1394 85.653 62.4781 81.481 49.3721 78.6209C25.6369 73.1073 4.36373 61.7115 4.36373 38.5512C4.36373 15.391 24.3101 0.943512 52.984 0.943512C71.9721 0.943512 87.9233 7.78396 97.4322 17.278L86.8029 34.3644C79.5792 26.9638 66.2963 21.2585 52.6154 21.2585C38.1827 21.2585 27.7304 27.9073 27.7304 37.7846C27.7304 49.5638 43.2983 54.5025 55.844 56.9644C68.1834 59.618 103.329 68.3603 103.329 97.6091C103.329 120.784 81.4809 136.544 53.1904 136.544C33.244 136.544 12.7374 128.376 0.0147423 116.037H0Z" fill="#A7DEE4"/>
<path d="M115.462 85.8299C115.462 56.9644 137.679 35.1163 167.311 35.1163C186.682 35.1163 203.017 44.6103 211.759 59.2348L193.331 70.4389C188.201 61.5198 178.707 55.6229 167.311 55.6229C150.224 55.6229 137.31 68.7288 137.31 85.8152C137.31 102.902 150.224 116.008 167.311 116.008C178.707 116.008 188.201 110.125 193.331 101.191L211.759 112.396C203.017 127.02 186.682 136.514 167.311 136.514C137.679 136.514 115.462 114.666 115.462 85.8005V85.8299Z" fill="#A7DEE4"/>
<path d="M283.923 35.8829V57.731H280.311C261.323 57.731 250.119 69.3185 250.119 87.1715V134.273H228.845V37.4013H250.119V51.6424C257.342 41.7651 267.588 35.8829 280.311 35.8829H283.923Z" fill="#A7DEE4"/>
<path d="M296.837 13.4892C296.837 5.70529 302.719 0 310.326 0C317.933 0 324.007 5.70529 324.007 13.4892C324.007 21.2732 318.125 26.9785 310.326 26.9785C302.528 26.9785 296.837 21.0963 296.837 13.4892ZM299.682 37.4013H320.956V134.259H299.682V37.4013Z" fill="#A7DEE4"/>
<path d="M449.332 85.8299C449.332 114.695 428.825 136.544 401.655 136.544C387.414 136.544 375.443 130.47 367.468 120.209V134.259H346.194V3.42023H367.468V51.4655C375.443 41.2049 387.414 35.131 401.655 35.131C428.811 35.131 449.332 56.9792 449.332 85.8447V85.8299ZM427.307 85.8299C427.307 68.7436 414.584 55.6376 397.483 55.6376C380.382 55.6376 367.468 68.7436 367.468 85.8299C367.468 102.916 380.382 116.022 397.483 116.022C414.584 116.022 427.307 102.916 427.307 85.8299Z" fill="#A7DEE4"/>
<path d="M564.425 94.3805H485.981C489.402 108.238 501.358 117.364 517.132 117.364C529.855 117.364 540.675 111.29 546.189 104.066L560.622 116.42C550.744 128.76 534.793 136.558 516.557 136.558C485.79 136.558 462.998 114.533 462.998 85.4614C462.998 56.3895 485.023 35.131 514.095 35.131C543.167 35.131 565 56.7875 565 86.0363C565 88.69 564.809 91.7416 564.425 94.3952V94.3805ZM485.804 76.9108H542.209C538.98 63.2299 527.776 54.3108 513.903 54.3108C500.031 54.3108 489.21 63.4216 485.79 76.9108H485.804Z" fill="#A7DEE4"/>
<path d="M676.438 76.3359C672.649 115.875 644.403 136.558 618.471 136.558C605.763 136.558 594.662 131.738 587.202 123.01C581.055 115.831 574.494 102.725 577.104 80.5522L598.687 83.2058C597.404 94.7933 599.114 103.609 603.655 108.843C607.09 112.853 611.881 114.799 618.264 114.799C634.466 114.799 652.172 100.897 654.693 74.3309C656.255 59.161 652.658 45.1411 645.095 36.7969C640.083 31.4159 633.051 28.5707 624.766 28.5707C611.689 28.5707 604.185 34.6887 601.753 39.9223C599.925 43.5784 600.117 46.8512 602.313 49.667C603.183 50.8611 608.299 56.7433 624.559 56.7433C628.82 56.7433 633.375 56.3747 638.388 55.5934L644.137 76.6749C637.017 77.9133 630.633 78.503 624.766 78.503C600.574 78.503 589.532 68.8173 585.109 63.053C577.885 53.6474 576.809 41.426 582.249 30.3545C589.281 15.8333 605.586 6.82571 624.766 6.82571C639.42 6.82571 651.98 12.1919 661.076 22.3494C672.723 35.0426 678.325 54.7236 676.438 76.3359Z" fill="#A7DEE4"/>
<path d="M730.056 35.8829C721.829 35.8829 714.547 38.8608 708.871 44.5219V37.2834H687.539V134.273H708.871V75.6282C708.871 64.7042 716.183 57.2298 727.063 57.0381H727.431C737.663 57.215 745.668 65.3823 745.668 75.6282V134.273H767V75.8199C767 50.8169 748.218 35.8829 730.056 35.8829Z" fill="#A7DEE4"/>
</svg>
